<svg width="56" height="40" viewBox="0 0 56 40" fill="currentColor" xmlns="http://www.w3.org/2000/svg">
<path d="M16.0197 22H9.98032C8.88662 22 8 22.8866 8 23.9803V30.0197C8 31.1134 8.88662 32 9.98032 32H16.0197C17.1134 32 18 31.1134 18 30.0197V23.9803C18 22.8866 17.1134 22 16.0197 22Z"/>
<path d="M16.0197 8H9.98032C8.88662 8 8 8.88662 8 9.98032V16.0197C8 17.1134 8.88662 18 9.98032 18H16.0197C17.1134 18 18 17.1134 18 16.0197V9.98032C18 8.88662 17.1134 8 16.0197 8Z"/>
<path d="M44.8224 9H23.1776C21.9749 9 21 9.90909 21 11.0305V14.9695C21 16.0909 21.9749 17 23.1776 17H44.8224C46.0251 17 47 16.0909 47 14.9695V11.0305C47 9.90909 46.0251 9 44.8224 9Z"/>
<path d="M44.8224 23H23.1776C21.9749 23 21 23.9091 21 25.0305V28.9695C21 30.0909 21.9749 31 23.1776 31H44.8224C46.0251 31 47 30.0909 47 28.9695V25.0305C47 23.9091 46.0251 23 44.8224 23Z"/>
</svg>
