<svg viewBox="0 0 170 52" fill="none" xmlns="http://www.w3.org/2000/svg">
<g clip-path="url(#clip0_1365_891)">
<path d="M26.2202 8.77197H16V42.3665H21.9689V29.2524H26.158C26.158 29.2524 34.6528 29.8444 34.6528 19.1583V17.3748C34.6528 17.3748 34.101 8.77197 26.2202 8.77197ZM28.7461 19.8702C28.7461 23.5796 25.2098 23.7295 25.2098 23.7295H22.0544V14.6771H25.3342C28.614 14.6771 28.7539 18.2666 28.7539 18.2666V19.8702H28.7461Z" fill="white"/>
<path d="M42.0363 8.77197H36.1917V42.3665H42.0363V8.77197Z" fill="white"/>
<path d="M52.5363 15.3887C46.5673 15.3887 44.0259 20.432 44.0259 24.8982H49.1321C49.1321 24.8982 49.2176 20.4395 52.2409 20.4395C53.7642 20.4395 54.4093 21.9982 54.4093 22.8674C54.4093 23.7367 54.0829 25.1156 51.3394 26.7642C48.5958 28.4128 43.6528 30.1439 43.6528 35.337C43.6528 40.5302 46.2409 42.7709 49.4896 42.7709C52.7383 42.7709 54.4093 40.208 54.4093 40.208V42.4111H59.9818V22.6576C59.9818 20.342 58.5052 15.3887 52.5363 15.3887ZM54.3471 36.5136C54.3471 36.5136 53.4922 37.9823 51.9223 37.9823C50.3523 37.9823 49.2875 36.7833 49.2875 35.1797C49.2875 33.576 50.1425 31.9274 51.6658 31.1256C53.1891 30.3237 54.3471 29.1922 54.3471 29.1922V36.5136Z" fill="white"/>
<path d="M60.3549 8.77197H66.3239L69.6192 25.8652L73.0389 8.77197H78.7669C78.7669 8.77197 72.4249 36.1616 71.7487 38.9268C71.0726 41.692 69.1917 44.0001 66.6969 44.0001H62.6011V38.9868H64.6606C66.1373 38.9868 66.829 37.6529 66.6425 36.6712C66.5492 35.9593 60.3472 8.77197 60.3472 8.77197H60.3549Z" fill="white"/>
<path d="M83.0104 8.77197H89.0104L83.7798 33.7037H79.2565L83.0104 8.77197Z" fill="white"/>
<path d="M78.4482 36.0493L77.1503 42.5014H82.715L83.9197 36.0493H78.4482Z" fill="white"/>
<path d="M112.218 8.53223H105.262L91.4741 30.3465L90.5181 36.0418H101.508L100.396 43.1384H106.187L107.298 36.0418H110.251L111.301 30.1367H108.409L112.218 8.53223ZM102.611 30.2266H97.0699L104.92 17.4948L102.611 30.2266Z" fill="white"/>
<path d="M125.15 7.99978C122.135 7.99978 115.544 9.72334 113.205 25.8349C110.865 41.9465 117.759 43.67 120.223 43.67C122.687 43.67 130.008 43.9548 132.907 25.8349C135.798 7.71501 126.254 7.99978 125.15 7.99978ZM126.674 26.2246C124.552 37.9448 121.964 37.6076 121.132 37.6076C120.301 37.6076 117.487 37.6526 119.236 26.2246C120.992 14.7966 123.573 14.0997 124.87 14.0997C125.795 14.0997 128.795 14.4969 126.674 26.2246Z" fill="white"/>
<path d="M154 8.53223H139.225L134.189 27.0943H139.591C139.591 27.0943 140.764 25.0035 142.731 24.9136C144.697 24.8237 145.762 26.9893 145.637 29.2749C145.513 31.5605 144.347 37.9977 141.301 37.9977C138.254 37.9977 138.868 32.2125 138.868 30.7887H133.233V32.3923C133.233 33.6363 132.65 43.6704 141.083 43.6704C149.516 43.6704 151.552 32.0926 151.552 28.7129C151.552 25.3332 150.324 19.5406 144.689 19.5406C142.808 19.5406 141.394 20.6122 140.749 21.2042L142.598 14.4073H152.819L154 8.53223Z" fill="white"/>
</g>
<defs>
<clipPath id="clip0_1365_891">
<rect width="138" height="36" fill="white" transform="translate(16 8)"/>
</clipPath>
</defs>
</svg>
