<svg width="128" height="75" viewBox="0 0 128 75" fill="none" xmlns="http://www.w3.org/2000/svg">
<rect x="1" y="1" width="126" height="73" rx="36.5" fill="white" stroke="black" stroke-width="2"/>
<g clip-path="url(#clip0_2393_602)">
<path d="M51.586 16.9252C50.6911 16.8713 49.784 16.8713 48.8892 16.9252C44.1536 17.2231 40.4882 19.0012 38.2495 20.4401C33.5017 23.4892 31.3246 27.5271 30.6081 29.1245C29.6272 31.3114 29.086 33.6346 29.0029 36.0498V44.3126L29.0306 44.395C29.089 44.5757 29.335 45.181 30.0392 45.4219C30.2176 45.4853 30.4051 45.5138 30.5927 45.5138C31.1278 45.5138 31.6628 45.2666 32.0134 44.8292L35.7649 41.384C36.0448 41.1273 36.4384 40.6836 36.7336 40.0306C37.0165 39.3999 37.1333 38.709 37.078 37.9832C36.9826 36.6552 37.1087 35.3335 37.45 34.0594C38.3879 30.5698 41.9642 27.3274 42.4408 26.9914C45.03 25.15 47.7452 24.5731 49.5718 24.4146H95.5343V16.9252H51.586Z" fill="#161616"/>
<path d="M88.6807 13.1374V28.3508C88.6807 29.2573 89.434 29.7961 89.9968 29.2953L97.875 22.2845C98.816 21.4477 98.7975 19.5873 97.8412 18.7822L89.9783 12.1739C89.4156 11.6984 88.6807 12.2436 88.6807 13.1342V13.1374Z" fill="#161616"/>
<path d="M76.414 58.4265C77.3088 58.4804 78.216 58.4804 79.1108 58.4265C83.8464 58.1286 87.5118 56.3505 89.7504 54.9116C94.4983 51.8626 96.6754 47.8247 97.3919 46.2272C98.3728 44.0403 98.914 41.7171 98.997 39.3019V31.0391L98.9694 30.9567C98.9109 30.7761 98.6649 30.1707 97.9608 29.9298C97.7824 29.8664 97.5948 29.8379 97.4072 29.8379C96.8722 29.8379 96.3371 30.0851 95.9866 30.5225L92.235 33.9677C91.9552 34.2244 91.5616 34.6682 91.2664 35.3211C90.9835 35.9518 90.8667 36.6428 90.922 37.3686C91.0173 38.6966 90.8913 40.0182 90.5499 41.2924C89.612 44.782 86.0358 48.0243 85.5592 48.3603C82.97 50.2018 80.2547 50.7786 78.4282 50.9371H32.4688V58.4234H76.414V58.4265Z" fill="#161616"/>
<path d="M39.3198 61.8623V46.6488C39.3198 45.7423 38.5356 45.2035 37.9483 45.7043L29.7257 52.7152C28.7447 53.5519 28.7632 55.4124 29.7595 56.2175L37.9667 62.8258C38.5541 63.3012 39.3198 62.7561 39.3198 61.8655V61.8623Z" fill="#161616"/>
</g>
<defs>
<clipPath id="clip0_2393_602">
<rect width="70" height="51" fill="white" transform="translate(29 12)"/>
</clipPath>
</defs>
</svg>
