<svg width="98" height="58" viewBox="0 0 98 58" fill="none" xmlns="http://www.w3.org/2000/svg">
<rect x="1" y="1" width="96" height="56" rx="28" fill="white" stroke="black" stroke-width="2"/>
<g clip-path="url(#clip0_2395_652)">
<path d="M54.1399 25.406C54.1399 25.406 54.5769 24.8284 55.0784 24.3269C55.732 23.6714 56.1291 23.2743 56.7617 22.9817C57.0904 22.8297 57.6395 22.6341 58.3994 22.6246H61.9864V24.1103C61.9864 24.437 62.3398 24.6403 62.6229 24.4788L68.8659 20.8843C69.6069 20.4587 69.6069 19.389 68.8659 18.9635L62.6229 15.3689C62.3398 15.2055 61.9864 15.4107 61.9864 15.7375V17.4949H57.9473C56.8187 17.5367 55.9258 17.7912 55.3425 18.0059C54.2995 18.3897 53.5908 18.8856 53.1672 19.1877C52.4604 19.6911 52.0006 20.1509 51.5408 20.6126C50.9082 21.249 50.3819 21.8741 49.9487 22.4498L41.8875 33.1442L41.8723 33.1651C41.3974 33.8092 40.5671 34.6831 39.3094 35.1885C38.8572 35.3709 38.3803 35.4925 37.8883 35.5533H31.4344C30.9879 35.5533 30.625 35.9162 30.625 36.3626V39.8736C30.625 40.3201 30.9879 40.683 31.4344 40.683H38.1599C38.9959 40.607 40.0617 40.4151 41.2207 39.9496C43.7703 38.9237 45.2921 37.1644 45.9913 36.222C48.7043 32.6237 51.4155 29.0253 54.1285 25.425C54.1323 25.4212 54.1361 25.4155 54.1418 25.4079L54.1399 25.406Z" fill="#161616"/>
<path d="M31.5103 22.6248H37.8864C38.3784 22.6856 38.8553 22.8072 39.3075 22.9896C40.5652 23.495 41.3955 24.3689 41.8704 25.013L41.8856 25.0339L43.2934 26.9015L46.4359 22.5488C46.2877 22.3512 46.1376 22.1536 45.9894 21.9561C45.2902 21.0137 43.7684 19.2544 41.2188 18.2285C40.0598 17.763 38.994 17.5692 38.1581 17.4951H31.5103C31.0221 17.4951 30.625 17.8903 30.625 18.3805V21.7414C30.625 22.2296 31.0202 22.6267 31.5103 22.6267V22.6248Z" fill="#161616"/>
<path d="M68.7158 36.935L62.7502 33.5C62.4101 33.3043 61.9864 33.5494 61.9864 33.9408V35.5519H58.3994C57.6414 35.5424 57.0904 35.3467 56.7617 35.1947C56.1272 34.9021 55.732 34.5051 55.0784 33.8496C54.5788 33.348 54.1399 32.7705 54.1399 32.7705C54.1342 32.7629 54.1304 32.7572 54.1266 32.7534C53.7637 32.2708 53.3989 31.7882 53.0361 31.3057C51.9664 32.7268 50.8968 34.1479 49.8271 35.5671L49.9487 35.7286C50.3819 36.3024 50.9082 36.9293 51.5408 37.5658C52.0006 38.0275 52.4604 38.4872 53.1671 38.9907C53.5908 39.2928 54.2995 39.7887 55.3425 40.1724C55.9258 40.3871 56.8168 40.6398 57.9473 40.6835H61.9864V42.0229C61.9864 42.4143 62.4101 42.6594 62.7502 42.4637L68.7158 39.0287C69.5233 38.5632 69.5233 37.4005 68.7158 36.935Z" fill="#161616"/>
</g>
<defs>
<clipPath id="clip0_2395_652">
<rect width="38.7957" height="27.2197" fill="white" transform="translate(30.625 15.3125)"/>
</clipPath>
</defs>
</svg>
