<svg width="570" height="154" viewBox="0 0 570 154" fill="currentColor" xmlns="http://www.w3.org/2000/svg">
<g clip-path="url(#clip0_1297_1752)">
<path d="M42.2139 3.30176H0V147.012H24.6542V90.9125H41.9571C41.9571 90.9125 77.0444 93.445 77.0444 47.7322V40.1028C77.0444 40.1028 74.7652 3.30176 42.2139 3.30176ZM52.647 50.7776C52.647 66.6456 38.0407 67.2868 38.0407 67.2868H25.0073V28.5624H38.5543C52.1013 28.5624 52.6791 43.9175 52.6791 43.9175V50.7776H52.647Z"/>
<path d="M107.541 3.30176H83.4004V147.012H107.541V3.30176Z"/>
<path d="M150.911 31.6074C126.256 31.6074 115.759 53.1815 115.759 72.2873H136.85C136.85 72.2873 137.203 53.2136 149.691 53.2136C155.983 53.2136 158.647 59.8814 158.647 63.5999C158.647 67.3185 157.299 73.2169 145.967 80.2694C134.635 87.3218 114.218 94.7269 114.218 116.942C114.218 139.157 124.908 148.742 138.327 148.742C151.745 148.742 158.647 137.779 158.647 137.779V147.204H181.664V62.7023C181.664 52.7968 175.565 31.6074 150.911 31.6074ZM158.39 121.975C158.39 121.975 154.859 128.258 148.375 128.258C141.89 128.258 137.492 123.129 137.492 116.269C137.492 109.409 141.023 102.356 147.315 98.9263C153.607 95.4963 158.39 90.6557 158.39 90.6557V121.975Z"/>
<path d="M183.205 3.30176H207.859L221.47 76.4229L235.595 3.30176H259.254C259.254 3.30176 233.059 120.469 230.266 132.298C227.473 144.126 219.705 154 209.4 154H192.482V132.554H200.989C207.089 132.554 209.946 126.848 209.175 122.649C208.79 119.603 183.173 3.30176 183.173 3.30176H183.205Z"/>
<path d="M276.782 3.30176H301.565L279.96 109.954H261.277L276.782 3.30176Z"/>
<path d="M257.938 119.988L252.577 147.589H275.562L280.538 119.988H257.938Z"/>
<path d="M397.421 2.27637H368.69L311.741 95.5932L307.792 119.956H353.184L348.594 150.314H372.51L377.1 119.956H389.299L393.633 94.6956H381.691L397.421 2.27637ZM357.743 95.0803H334.854L367.277 40.6161L357.743 95.0803Z"/>
<path d="M450.838 0.000154637C438.382 0.000154637 411.16 7.37317 401.497 76.2949C391.835 145.217 420.309 152.59 430.485 152.59C440.662 152.59 470.901 153.808 482.875 76.2949C494.817 -1.218 455.396 0.000154637 450.838 0.000154637ZM457.13 77.9619C448.366 128.098 437.676 126.656 434.241 126.656C430.806 126.656 419.185 126.848 426.408 77.9619C433.663 29.0755 444.321 26.0942 449.682 26.0942C453.502 26.0942 465.894 27.7932 457.13 77.9619Z"/>
<path d="M570 2.27637H508.975L488.173 81.6806H510.483C510.483 81.6806 515.331 72.7368 523.452 72.3521C531.574 71.9675 535.972 81.2318 535.459 91.0091C534.945 100.786 530.13 128.323 517.546 128.323C504.962 128.323 507.498 103.575 507.498 97.4845H484.224V104.345C484.224 109.666 481.816 152.59 516.647 152.59C551.477 152.59 559.888 103.062 559.888 88.6048C559.888 74.1473 554.816 49.3675 531.542 49.3675C523.773 49.3675 517.931 53.9516 515.266 56.4841L522.907 27.4088H565.121L570 2.27637Z"/>
</g>
<defs>
<clipPath id="clip0_1297_1752">
<rect width="570" height="154" fill="white"/>
</clipPath>
</defs>
</svg>
