<svg viewBox="0 0 250 266" fill="none" xmlns="http://www.w3.org/2000/svg">
<path d="M34.9495 0H0V118.979H20.4116V72.5341H34.7368C34.7368 72.5341 63.7861 74.6308 63.7861 36.7846V30.4681C63.7861 30.4681 61.8991 0 34.9495 0ZM43.5872 39.3059C43.5872 52.4433 31.4944 52.9741 31.4944 52.9741H20.7039V20.9136H31.9196C43.1353 20.9136 43.6137 33.6263 43.6137 33.6263V39.3059H43.5872Z" fill="white"/>
<path d="M89.0342 0H69.0479V118.979H89.0342V0Z" fill="white"/>
<path d="M124.942 23.4346C104.53 23.4346 95.8392 41.2961 95.8392 57.114H113.301C113.301 57.114 113.593 41.3226 123.932 41.3226C129.141 41.3226 131.347 46.843 131.347 49.9216C131.347 53.0003 130.231 57.8836 120.849 63.7225C111.467 69.5613 94.5635 75.6921 94.5635 94.0844C94.5635 112.477 103.414 120.412 114.523 120.412C125.633 120.412 131.347 111.335 131.347 111.335V119.138H150.403V49.1785C150.403 40.9776 145.353 23.4346 124.942 23.4346ZM131.134 98.2511C131.134 98.2511 128.211 103.453 122.842 103.453C117.473 103.453 113.832 99.2066 113.832 93.527C113.832 87.8474 116.756 82.0086 121.965 79.1688C127.174 76.329 131.134 72.3215 131.134 72.3215V98.2511Z" fill="white"/>
<path d="M151.678 0H172.089L183.358 60.538L195.052 0H214.64C214.64 0 192.953 97.0041 190.641 106.797C188.328 116.591 181.897 124.765 173.365 124.765H159.359V107.01H166.402C171.452 107.01 173.817 102.286 173.179 98.8088C172.86 96.2875 151.651 0 151.651 0H151.678Z" fill="white"/>
<path d="M229.151 0H249.669L231.783 88.299H216.314L229.151 0Z" fill="white"/>
<path d="M213.551 96.6064L209.112 119.457H228.142L232.261 96.6064H213.551Z" fill="white"/>
<path d="M74.2045 141.553H50.4176L3.26905 218.811L0 238.981H37.5806L33.78 264.115H53.5803L57.3809 238.981H67.4804L71.0684 218.068H61.1815L74.2045 141.553ZM41.3547 218.386H22.4049L49.2482 173.295L41.3547 218.386Z" fill="white"/>
<path d="M118.43 139.668C108.118 139.668 85.5798 145.772 77.58 202.833C69.5802 259.895 93.1544 265.999 101.58 265.999C110.005 265.999 135.041 267.007 144.954 202.833C154.841 138.659 122.204 139.668 118.43 139.668ZM123.639 204.213C116.383 245.722 107.533 244.528 104.689 244.528C101.845 244.528 92.2242 244.687 98.2042 204.213C104.211 163.74 113.034 161.272 117.473 161.272C120.636 161.272 130.895 162.678 123.639 204.213Z" fill="white"/>
<path d="M217.086 141.553H166.562L149.339 207.293H167.811C167.811 207.293 171.824 199.888 178.548 199.569C185.272 199.251 188.913 206.921 188.488 215.016C188.063 223.111 184.076 245.908 173.658 245.908C163.24 245.908 165.339 225.42 165.339 220.377H146.07V226.056C146.07 230.462 144.077 265.999 172.914 265.999C201.75 265.999 208.714 224.995 208.714 213.025C208.714 201.056 204.514 180.54 185.246 180.54C178.814 180.54 173.977 184.335 171.771 186.432L178.096 162.36H213.046L217.086 141.553Z" fill="white"/>
</svg>
